<svg width="336" height="380" xmlns="http://www.w3.org/2000/svg"><g fill="none" fill-rule="evenodd"><g fill-rule="nonzero"><path d="M189 226.5c-1.3-1.3-3.5.3-5 1-10.3 3.4-21.5 3.4-31.7 0-1.6-.7-3.8-2.3-5-1-1.3 1.8-1 4.4.8 5.8 2 1.3 12 8.6 14 10.8 2 3 5 6 7 6 2 1 5-3 7-6 2-2 12-9 13.8-10 2-1 2-4 1-6zm0 36.3c-1.3.6-3.5-.2-5-.5-10.3-1.7-21.5-1.7-31.7 0-1.6.3-3.8 1-5 .5-1.3-1-1-2 .8-2.8 2-.6 12-4 14-5 2-1.2 5-3 7-3s5 1.8 7 3c2 1 12 4.4 13.8 5 2 .7 2 2 1 2.8z" fill="#3F352A"/><path d="M144.5 215s9-36.8-13.5-50.2c-22.5-13.5-30.5-26.8-30.5-26.8s32 22.4 43.8 23.8c12 1.3.2 53.3.2 53.3z" fill="#E5DDD3"/><path d="M139.3 172.5c-6.3-1.2-23.7-7-27.8-21.5 27.8 3.8 33 9.3 35.7 12 2.6 2.7 5.4 10.5 5.2 13.6-4-2-8.6-3.3-13-4z" fill="#3F352A"/><path d="M190.6 215s-9-36.8 13.5-50.2c23-13.5 31-26.8 31-26.8s-32 22.4-44 23.8c-12 1.3 0 53.3 0 53.3z" fill="#E5DDD3"/><path d="M195.6 172.5c6.3-1.2 23.7-7 27.8-21.5-27.8 3.8-33 9.3-35.7 12-2.6 2.7-5.4 10.6-5.2 13.6 4.2-2 8.6-3.3 13-4z" fill="#3F352A"/></g><path d="M176.3 48l-1.5-32-2 2.6c1.5 15-17 44.5-26.6 55.3 1.5-5 3-10 4.7-15 16-18 16-33 15-58l1-1c10 16 12 31 11 46l3-6.7c0 2.2-.4 4.3-.5 6.4 13-10 32.2-19.7 45-13.8-27.8 4-46 20-57 38.6-10.7 18.4-7 11-9 19-5.6-11 12-30 15-42.6z" fill="#E5DDD3"/><path d="M173.8 283c-1.7 13-3.5 26.2-5 39.4 1.8 9.5 3.6 19 5.6 28.6l-9.5-29.2-2 .5c-3 3-7 5.7-10 8.6l1-6 8-8c-34 19-10 55-13 59l1 3-2.8-3c-33-31 16.6-73 25-94.8z" fill="#3F352A"/><path d="M100 173.2c1.7 6.5 8 38 11 33.6l2.6-16.8h.2c0 11.4-5.8 36.5-3 45.5 1.5 5 6 4.7 7.7 9.3-3-1.3-5.4-3.4-8-5.2v2c1.8 9 4.8 6.7 8.8 10.4v.7c-3.5 0-5.7-1.3-8-2-3.2-10.2-1-23.3-2.7-36.7-2-15-8.5-22.2-8.6-40.8z" fill="#000"/><path d="M100 173.2c1.7 6.5 8 38 11 33.6l2.6-16.8h.2c0 11.4-5.8 36.5-3 45.5 1.5 5 6 4.7 7.7 9.3-3-1.3-5.4-3.4-8-5.2v2c1.8 9 4.8 6.7 8.8 10.4v.7c-3.5 0-5.7-1.3-8-2-3.2-10.2-1-23.3-2.7-36.7-2-15-8.5-22.2-8.6-40.8z" fill="#000"/><path d="M104.5 258c-4 3.5-5.8 13-12.6 18.3-17 13.3-44 19.5-41 42.7 0 .3 0 .4 1 .4 4-5.6 7-10.8 14-15.3 18-12 49-19 38-46zm-21-200c-4.8 0-7.3 3-9.3 5.7 13.6-3 19 7.3 20.8 19.3l.3-.6c1.7-1.6 6.2-7.7 5.7-10l-8-5.7-9.5-8.6zM101 84.2c-.2 13.5-21.2 27.7-16 39.8 2.4-12.3 14.3-20.5 20.2-30.3 2-3.2 6.5-10.7 4-16.6-2 3-4.6 7-8.2 8zM71 72c-1 .5-1 .6-1.3 1.5l.3 11.2c-1.3 7.5-2.8 13.4-5.4 19.3-6.8 15.7-21.6 28-21.6 49.5L55.7 138l11.3-9.4c2.3-3.4 2-8.8 4.2-12 1.8-3 5.7-5.5 6.5-9.3 2-9.6-6.7-23.7-6.8-35.3z" fill="#3F352A"/><path d="M88.2 79l-1.5.6-6.5 13.6h1c2.8-2.7 10.4-7 7.6-13l-.6-1.2z" fill="#E5DDD3"/><path d="M20 150c11 9.6 22.5 24.7 46.2 18.8 6.6-1.7 11.2-5.6 17-7.3v1.3c-11 27.2-45 27.5-58.4 1.3-2-3-5-9-4.7-14zM0 198c19.3 14.5 43 16 66.6 4.3-1 6-5.3 9.7-9.4 12.8-20 15-50.3 1-57-17zm83.6 23c4.6 6.5-3.5 16-6.4 18.8-11 10.5-30 8-47 13.2-5.3 1.7-9 5.2-13 8v-1c11.5-29.3 53.3-15.4 66.4-38.8z" fill="#3F352A"/><path d="M236 169.2c-1.7 6.5-8 38-11 33.6l-2.6-16.8h-.2c0 11.4 5.8 36.5 3 45.5-1.5 5-6 4.7-7.7 9.3 3-1.3 5.4-3.4 8-5.2v2c-1.8 9-4.8 6.7-8.8 10.4v.7c3.5 0 5.7-1.3 8-2 3.2-10.2 1-23.3 2.7-36.7 2-15 8.5-22.2 8.6-40.8z" fill="#000"/><path d="M239.7 253c3.4 4.2 3.5 13.8 9.2 20.3 14 16 39 26.7 33 49.3h-1c-4-6.3-6-12-12-17.6-16-15-46-27.6-30-51.8zm12.8-199c4.8 0 7.3 3 9.3 5.7-13.6-3-19 7.3-20.8 19.3l-.3-.6c-1.7-1.6-6.2-7.7-5.7-10l8-5.7 9.5-8.6zM235 80.2c.2 13.5 21.2 27.7 16 39.8-2.4-12.3-14.3-20.5-20.2-30.3-2-3.2-6.5-10.7-4-16.6 2 3 4.6 7 8.2 8zM265 68c1 .5 1 .6 1.3 1.5l-.3 11.2c1.3 7.5 2.8 13.4 5.4 19.3 6.8 15.7 21.6 28 21.6 49.5L280.3 134l-11.3-9.4c-2.3-3.4-2-8.8-4.2-12-1.8-3-5.7-5.5-6.5-9.3-2-9.6 6.7-23.7 6.8-35.3z" fill="#3F352A"/><path d="M247.8 75l1.5.6 6.5 13.6h-1c-2.8-2.7-10.4-7-7.6-13l.6-1.2z" fill="#E5DDD3"/><path d="M316 146c-11 9.6-22.5 24.7-46.2 18.8-6.6-1.7-11.2-5.6-17-7.3v1.3c11 27.2 45 27.5 58.4 1.3 2-3 5-9 4.7-14zm20 48c-19.3 14.5-43 16-66.6 4.3 1 6 5.3 9.7 9.4 12.8 20 15 50.3 1 57-17zm-83.6 23c-4.6 6.5 3.5 16 6.4 18.8 11 10.5 30 8 47 13.2 5.3 1.7 9 5.2 13 8v-1c-11.5-29.3-53.3-15.4-66.4-38.8z" fill="#3F352A"/></g></svg>