<svg id="Layer_1" data-name="Layer 1" xmlns="http://www.w3.org/2000/svg" viewBox="0 0 134.14 105.66"><defs><style>.cls-1{fill:#3f352a;}.cls-2{fill:#d7d5d2;}.cls-3{fill:#e5ddd3;}</style></defs><title>Untitled-2</title><path class="cls-1" d="M981,541.69c-1.15-1.31-3.36.34-4.92,0.87a48.3,48.3,0,0,1-31.7,0c-1.56-.54-3.77-2.18-4.92-0.87a4.26,4.26,0,0,0,.74,5.84c1.65,1.23,11.64,8.58,13.74,10.74s4.38,5.92,6.29,6,4.2-3.82,6.29-6,12.09-9.51,13.74-10.74A4.26,4.26,0,0,0,981,541.69Z" transform="translate(-893.06 -458.59)"/><path class="cls-1" d="M981,541.69l0.22,0.24Z" transform="translate(-893.06 -458.59)"/><path class="cls-1" d="M981.39,542.1h0Z" transform="translate(-893.06 -458.59)"/><path class="cls-2" d="M1025,459l0.22-.45L1025,459Z" transform="translate(-893.06 -458.59)"/><path class="cls-3" d="M937.1,535.66s9.06-36.81-13.49-50.28-30.55-26.78-30.55-26.78,31.89,22.45,43.79,23.76S937.1,535.66,937.1,535.66Z" transform="translate(-893.06 -458.59)"/><path class="cls-1" d="M932,492.93c-6.33-1.23-23.71-6.9-27.81-21.5,27.81,3.76,33.15,9.3,35.73,12s5.36,10.55,5.18,13.6A50.29,50.29,0,0,0,932,492.93Z" transform="translate(-893.06 -458.59)"/><path class="cls-3" d="M983.15,535.66s-9.06-36.81,13.49-50.28,30.55-26.78,30.55-26.78S995.31,481,983.41,482.35,983.15,535.66,983.15,535.66Z" transform="translate(-893.06 -458.59)"/><path class="cls-1" d="M988.3,492.93c6.33-1.23,23.71-6.9,27.81-21.5-27.81,3.76-33.15,9.3-35.73,12S975,494,975.2,497.07A50.29,50.29,0,0,1,988.3,492.93Z" transform="translate(-893.06 -458.59)"/></svg>